<svg xmlns="http://www.w3.org/2000/svg" viewBox="0 0 32 32">
  <rect width="32" height="32" rx="8" fill="#10243a" />
  <path d="M20.5 7.5c2.2-2.2 4.9-2.7 7-1.7-.2 2.5-1.7 4.9-4.4 6.1" fill="none" stroke="#8ee5ae" stroke-linecap="round" stroke-width="2.5" />
  <path d="M17 9c6 0 10 4.1 10 9.4C27 25 21.7 29 16 29S5 25 5 18.4C5 13.1 9.6 9 17 9Z" fill="#5cc98c" />
  <path d="M12 15.5h5.2c2.3 0 3.8 1.3 3.8 3.2 0 1.4-.8 2.5-2.1 3l2.6 3.8h-3.2L16 22h-1.2v3.5H12v-10Zm2.8 2.3v2h2.1c.8 0 1.3-.4 1.3-1s-.5-1-1.3-1h-2.1Z" fill="#10243a" />
</svg>
